<svg width="24" height="24" viewBox="0 0 24 24" fill="none" xmlns="http://www.w3.org/2000/svg">
<path d="M12 1.5C9.5273 1.5 7.49996 3.52734 7.49996 6H4.49996C4.10152 6 3.7734 6.31055 3.74996 6.70898L2.99996 20.209C2.98824 20.4141 3.06441 20.6191 3.20504 20.7656C3.34566 20.918 3.54488 21 3.74996 21H20.25C20.455 21 20.6543 20.918 20.7949 20.7656C20.9355 20.6191 21.0117 20.4141 21 20.209L20.25 6.70898C20.2265 6.31055 19.8984 6 19.5 6H16.5C16.5 3.52734 14.4726 1.5 12 1.5ZM12 3C13.6523 3 15 4.34766 15 6H8.99996C8.99996 4.34766 10.3476 3 12 3ZM5.20894 7.5H7.49996V10.5H8.99996V7.5H15V10.5H16.5V7.5H18.791L19.4531 19.5H4.54683L5.20894 7.5Z" fill="white"/>
</svg>
