<svg width="31" height="31" viewBox="0 0 31 31" fill="none" xmlns="http://www.w3.org/2000/svg">
<path d="M10.6411 3.875C9.05629 3.875 7.74642 5.17285 7.73486 6.75854L7.6781 14.1377L6.08118 15.799C5.9087 15.9793 5.81246 16.2192 5.8125 16.4688V24.2188C5.8125 25.8124 7.1251 27.125 8.71875 27.125H22.2812C23.8749 27.125 25.1875 25.8124 25.1875 24.2188V6.78125C25.1875 5.1876 23.8749 3.875 22.2812 3.875H10.6411ZM10.6411 5.8125H22.2812C22.8266 5.8125 23.25 6.2359 23.25 6.78125V24.2188C23.25 24.7641 22.8266 25.1875 22.2812 25.1875H8.71875C8.1734 25.1875 7.75 24.7641 7.75 24.2188V16.8585L9.34314 15.201C9.51382 15.0226 9.60992 14.7857 9.61182 14.5388L9.67236 6.77368C9.67631 6.232 10.0986 5.8125 10.6411 5.8125ZM11.625 7.75V11.625H13.5625V7.75H11.625ZM15.5 7.75V11.625H17.4375V7.75H15.5ZM19.375 7.75V11.625H21.3125V7.75H19.375Z" fill="#19A364" stroke="white" stroke-width="0.5"/>
</svg>
