<svg width="34" height="19" viewBox="0 0 34 19" fill="none" xmlns="http://www.w3.org/2000/svg">
<rect x="9.35144" y="1" width="22.4286" height="17" rx="2" fill="white" stroke="#19A364" stroke-width="2"/>
<rect x="0.5" y="3.43143" width="8.71" height="12.1328" fill="white" stroke="#19A364"/>
<rect x="25.7799" y="5.92857" width="7.5" height="7.14286" rx="1.5" fill="white" stroke="#19A364"/>
<circle cx="29.3514" cy="9.5" r="1.35714" fill="#19A364"/>
<path d="M16.8225 4.20375V4.9875H15.255V13.6088H16.8225V14.3925H17.6063V13.6088H18.39V14.3925H19.1738V13.6088H19.9575C21.2525 13.6088 22.3088 12.5525 22.3088 11.2575C22.3088 10.2472 21.6628 9.38997 20.7657 9.05933C21.228 8.62765 21.525 8.01841 21.525 7.33875C21.525 6.04373 20.4688 4.9875 19.1738 4.9875V4.20375H18.39V4.9875H17.6063V4.20375H16.8225ZM16.0388 5.77125H19.1738C20.0432 5.77125 20.7413 6.46928 20.7413 7.33875C20.7413 8.20822 20.0432 8.90625 19.1738 8.90625H16.0388V5.77125ZM16.0388 9.69H19.9575C20.827 9.69 21.525 10.388 21.525 11.2575C21.525 12.127 20.827 12.825 19.9575 12.825H16.0388V9.69Z" fill="#19A364"/>
<rect x="4" y="6" width="2" height="2" fill="#19A364"/>
<rect x="4" y="11" width="2" height="2" fill="#19A364"/>
</svg>
