<svg width="16" height="16" viewBox="0 0 16 16" fill="none" xmlns="http://www.w3.org/2000/svg">
<path d="M5.5 1C5.22266 1 5 1.22266 5 1.5V2H2V3H5V3.5C5 3.77734 5.22266 4 5.5 4H7.5C7.77734 4 8 3.77734 8 3.5V3H14V2H8V1.5C8 1.22266 7.77734 1 7.5 1H5.5ZM6 2H7V3H6V2ZM9.5 6C9.22266 6 9 6.22266 9 6.5V7H2V8H9V8.5C9 8.77734 9.22266 9 9.5 9H11.5C11.7773 9 12 8.77734 12 8.5V8H14V7H12V6.5C12 6.22266 11.7773 6 11.5 6H9.5ZM10 7H11V8H10V7ZM3.5 11C3.22266 11 3 11.2227 3 11.5V12H2V13H3V13.5C3 13.7773 3.22266 14 3.5 14H5.5C5.77734 14 6 13.7773 6 13.5V13H14V12H6V11.5C6 11.2227 5.77734 11 5.5 11H3.5ZM4 12H5V13H4V12Z" fill="white"/>
</svg>
