<svg width="17" height="17" viewBox="0 0 17 17" fill="none" xmlns="http://www.w3.org/2000/svg">
<g clip-path="url(#clip0_42_2806)">
<path d="M17.0007 9.10215C16.9981 9.09153 16.9941 9.0809 16.9901 9.07028C16.9901 9.06629 16.9901 9.06364 16.9901 9.05965C16.9874 9.04903 16.9835 9.0384 16.9795 9.02778C16.9224 5.70082 14.2103 3.01403 10.8701 3.01403L8.59635 3.01403C8.52994 2.9941 8.46088 2.9941 8.39447 3.01403L6.1101 3.01403C2.734 3.01403 -0.00990117 5.75793 -0.00990131 9.13403C-0.00990146 12.5101 2.734 15.254 6.1101 15.254L8.42635 15.254C8.4715 15.2633 8.51932 15.2633 8.56447 15.254L10.8701 15.254C14.2103 15.254 16.9224 12.5672 16.9795 9.24028C16.9835 9.23364 16.9874 9.22567 16.9901 9.21903C16.9901 9.21239 16.9901 9.20442 16.9901 9.19778C16.9981 9.16723 17.0021 9.13403 17.0007 9.10215ZM16.2888 8.79403L8.8301 8.79403L8.8301 3.69403L10.8701 3.69403C13.7628 3.69403 16.1122 5.94653 16.2888 8.79403ZM16.2888 9.47403C16.1122 12.3215 13.7628 14.574 10.8701 14.574L8.8301 14.574L8.8301 9.47403L16.2888 9.47403ZM8.1501 3.69403L8.1501 14.574L6.1101 14.574C3.10189 14.574 0.670099 12.1422 0.670099 9.13403C0.670099 6.12582 3.1019 3.69403 6.1101 3.69403L8.1501 3.69403Z" fill="white" stroke="white" stroke-width="0.5"/>
</g>
<defs>
<clipPath id="clip0_42_2806">
<rect width="17" height="17" fill="white" transform="translate(17.001) rotate(90)"/>
</clipPath>
</defs>
</svg>
