<svg width="19" height="19" viewBox="0 0 19 19" fill="none" xmlns="http://www.w3.org/2000/svg">
<path d="M5.13956 1.78125C4.82877 1.78125 4.52262 1.89258 4.26749 2.09668L4.23038 2.11523L4.21183 2.13379L2.35636 4.04492L2.37491 4.06348C1.80204 4.59229 1.62577 5.38318 1.87394 6.06738C1.87626 6.07202 1.87162 6.0813 1.87394 6.08594C2.37723 7.52625 3.66447 10.3071 6.17863 12.8213C8.70206 15.3447 11.5201 16.5809 12.914 17.126H12.9325C13.6538 17.3672 14.4355 17.1956 14.9921 16.7178L16.8661 14.8438C17.3578 14.3521 17.3578 13.4985 16.8661 13.0068L14.454 10.5947L14.4355 10.5576C13.9438 10.0659 13.0717 10.0659 12.58 10.5576L11.3925 11.7451C10.9634 11.5387 9.94059 11.0099 8.96183 10.0752C7.99003 9.14746 7.49369 8.08057 7.31046 7.66309L8.49796 6.47559C8.99662 5.97693 9.0059 5.14661 8.47941 4.65723L8.49796 4.63867L8.4423 4.58301L6.0673 2.13379L6.04874 2.11523L6.01163 2.09668C5.75651 1.89258 5.45035 1.78125 5.13956 1.78125ZM5.13956 2.96875C5.18363 2.96875 5.2277 2.98962 5.26945 3.02441L7.64445 5.45508L7.70011 5.51074C7.69547 5.5061 7.7349 5.56873 7.663 5.64062L6.17863 7.125L5.90031 7.38477L6.03019 7.75586C6.03019 7.75586 6.71207 9.58118 8.14542 10.9473L8.2753 11.0586C9.65531 12.318 11.2812 13.0068 11.2812 13.0068L11.6523 13.1738L13.415 11.4111C13.517 11.3091 13.4984 11.3091 13.6005 11.4111L16.0312 13.8418C16.1332 13.9438 16.1332 13.9067 16.0312 14.0088L14.2128 15.8271C13.9391 16.0614 13.6492 16.1101 13.3036 15.9941C11.9584 15.4653 9.34452 14.3173 7.01359 11.9863C4.6641 9.63684 3.43717 6.97192 2.98722 5.67773C2.89676 5.43652 2.96171 5.07935 3.17277 4.89844L3.20988 4.86133L5.00968 3.02441C5.05143 2.98962 5.0955 2.96875 5.13956 2.96875Z" fill="white"/>
</svg>
