<svg width="17" height="17" viewBox="0 0 17 17" fill="none" xmlns="http://www.w3.org/2000/svg">
<path d="M10.0945 1.59366C7.16638 1.59366 4.78198 3.97806 4.78198 6.90616C4.78198 8.17825 5.22815 9.34451 5.97729 10.2597L1.7439 14.4931L2.50757 15.2567L6.74097 11.0233C7.65613 11.7725 8.82239 12.2187 10.0945 12.2187C13.0226 12.2187 15.407 9.83426 15.407 6.90616C15.407 3.97806 13.0226 1.59366 10.0945 1.59366ZM10.0945 2.65616C12.4478 2.65616 14.3445 4.55289 14.3445 6.90616C14.3445 9.25943 12.4478 11.1562 10.0945 11.1562C7.74121 11.1562 5.84448 9.25943 5.84448 6.90616C5.84448 4.55289 7.74121 2.65616 10.0945 2.65616Z" fill="#3F9994"/>
</svg>
