<svg width="21" height="16" viewBox="0 0 21 16" fill="none" xmlns="http://www.w3.org/2000/svg">
<g clip-path="url(#clip0_42_3192)">
<path d="M9.84375 -0.6875C5.14233 -0.6875 1.3125 3.14233 1.3125 7.84375C1.3125 12.5452 5.14233 16.375 9.84375 16.375C14.5452 16.375 18.375 12.5452 18.375 7.84375C18.375 3.14233 14.5452 -0.6875 9.84375 -0.6875ZM9.84375 0.625C13.8376 0.625 17.0625 3.84985 17.0625 7.84375C17.0625 11.8376 13.8376 15.0625 9.84375 15.0625C5.84985 15.0625 2.625 11.8376 2.625 7.84375C2.625 3.84985 5.84985 0.625 9.84375 0.625ZM9.1875 1.9375V8.5H13.125V7.1875H10.5V1.9375H9.1875Z" fill="white"/>
</g>
<defs>
<clipPath id="clip0_42_3192">
<rect width="21" height="15.96" fill="white" transform="translate(0 0.0400391)"/>
</clipPath>
</defs>
</svg>
