<svg width="20" height="20" viewBox="0 0 20 20" fill="none" xmlns="http://www.w3.org/2000/svg">
<path d="M20 4.86328L15 7.69531V6.875C15 5.84473 14.1553 5 13.125 5H1.875C0.844726 5 0 5.84473 0 6.875V13.125C0 14.1553 0.844726 15 1.875 15H13.125C14.1553 15 15 14.1553 15 13.125V12.3047L20 15.1367V4.86328ZM1.875 6.25H13.125C13.4766 6.25 13.75 6.52344 13.75 6.875V13.125C13.75 13.4766 13.4766 13.75 13.125 13.75H1.875C1.52344 13.75 1.25 13.4766 1.25 13.125V6.875C1.25 6.52344 1.52344 6.25 1.875 6.25ZM18.75 7.01172V12.9883L15 10.8643V9.13574L18.75 7.01172Z" fill="white"/>
</svg>
