<svg width="45" height="44" viewBox="0 0 45 44" fill="none" xmlns="http://www.w3.org/2000/svg">
<g clip-path="url(#clip0_42_2734)">
<path d="M22.0015 0.879913C17.1306 0.879913 13.2015 4.80898 13.2015 9.67991V11.4399H6.24399L6.16149 12.2099L2.64149 43.0099L2.53149 43.9999H41.4715L41.3615 43.0099L37.8415 12.2099L37.759 11.4399H30.8015V9.67991C30.8015 4.80898 26.8724 0.879913 22.0015 0.879913ZM22.0015 2.63991C25.9306 2.63991 29.0415 5.75085 29.0415 9.67991V11.4399H14.9615V9.67991C14.9615 5.75085 18.0724 2.63991 22.0015 2.63991ZM7.83899 13.1999H13.2015V15.2074C12.6756 15.5134 12.3215 16.0702 12.3215 16.7199C12.3215 17.6927 13.1087 18.4799 14.0815 18.4799C15.0543 18.4799 15.8415 17.6927 15.8415 16.7199C15.8415 16.0702 15.4874 15.5134 14.9615 15.2074V13.1999H29.0415V15.2074C28.5156 15.5134 28.1615 16.0702 28.1615 16.7199C28.1615 17.6927 28.9487 18.4799 29.9215 18.4799C30.8943 18.4799 31.6815 17.6927 31.6815 16.7199C31.6815 16.0702 31.3274 15.5134 30.8015 15.2074V13.1999H36.164L39.4915 42.2399H4.51149L7.83899 13.1999Z" fill="#19A364"/>
</g>
<defs>
<clipPath id="clip0_42_2734">
<rect width="44" height="44" fill="white" transform="translate(0.00146484)"/>
</clipPath>
</defs>
</svg>
