<svg width="15" height="30" viewBox="0 0 15 30" fill="none" xmlns="http://www.w3.org/2000/svg">
<path d="M3 21.9696C1.89543 21.9696 1 21.0742 1 19.9696L0.999999 7.42189C0.999999 4.33461 3.50274 1.83187 6.59002 1.83187C10.1972 1.83187 13.1215 4.7561 13.1215 8.36332L13.1215 19.9696C13.1215 21.0742 12.226 21.9696 11.1215 21.9696L3 21.9696Z" fill="white" stroke="#19A364" stroke-width="2"/>
<rect x="5.41919" y="8.35287" width="3.1321" height="3.1321" rx="1.56605" transform="rotate(-90 5.41919 8.35287)" fill="white" stroke="#19A364"/>
<path d="M9.15742 12.0413C8.30469 12.0413 7.60788 12.7381 7.60788 13.5908C7.60788 13.9162 7.7104 14.2175 7.88329 14.4675L5.50955 16.8412L4.85281 16.1845L4.48762 16.5497L5.14435 17.2064L4.73478 17.616L3.81978 16.701L3.45459 17.0662L4.73478 18.3464L8.24545 14.8357C8.50232 15.0248 8.81562 15.1403 9.15742 15.1403C10.0101 15.1403 10.707 14.4435 10.707 13.5908C10.707 12.7381 10.0101 12.0413 9.15742 12.0413ZM9.15742 12.5578C9.731 12.5578 10.1904 13.0172 10.1904 13.5908C10.1904 14.1644 9.731 14.6238 9.15742 14.6238C8.58384 14.6238 8.12439 14.1644 8.12439 13.5908C8.12439 13.0172 8.58384 12.5578 9.15742 12.5578Z" fill="#19A364"/>
<rect x="1.09033" y="29.2581" width="8.08" height="11.9335" transform="rotate(-90 1.09033 29.2581)" fill="white" stroke="#19A364"/>
<rect x="2.92688" y="24.7651" width="2.06605" height="4.1321" fill="#19A364"/>
<rect x="6.026" y="23.7321" width="2.06605" height="5.16513" fill="#19A364"/>
<rect x="9.12512" y="24.7651" width="2.07" height="4.1321" fill="#19A364"/>
</svg>
