<svg width="20" height="30" viewBox="0 0 20 30" fill="none" xmlns="http://www.w3.org/2000/svg">
<path d="M1 10.5714L0.999999 25.0014C0.999999 26.6583 2.34315 28.0014 4 28.0014L15.67 28.0014C17.3269 28.0014 18.67 26.6583 18.67 25.0014L18.67 10.5714L1 10.5714Z" fill="white" stroke="#19A364" stroke-width="2"/>
<rect x="0.5" y="0.5" width="3" height="3" rx="1.5" transform="matrix(-4.37114e-08 1 1 4.37114e-08 7.76196 12.6667)" fill="white" stroke="#19A364"/>
<path d="M8.57141 1.00002C7.46684 1.00002 6.57141 1.89545 6.57141 3.00001L6.57141 5.76002L13.0914 5.76002L13.0914 3.00002C13.0914 1.89545 12.196 1.00002 11.0914 1.00002L8.57141 1.00002Z" fill="white" stroke="#19A364" stroke-width="2"/>
<path d="M3.57141 5.50002C2.1907 5.50002 1.07141 6.6193 1.07141 8.00001L1.07141 11.26L18.5914 11.26L18.5914 8.00002C18.5914 6.61931 17.4721 5.50002 16.0914 5.50002L3.57141 5.50002Z" fill="white" stroke="#19A364"/>
</svg>
