<svg width="34" height="32" viewBox="0 0 34 32" fill="none" xmlns="http://www.w3.org/2000/svg">
<path d="M6.29883 3.875C4.81201 3.875 3.75 5.21533 3.75 6.6875V21.6875C3.75 23.1597 4.81201 24.5 6.29883 24.5H7.5V22.625H6.29883C6.00586 22.625 5.625 22.2808 5.625 21.6875V6.6875C5.625 6.09424 6.00586 5.75 6.29883 5.75H18.5962C18.2446 4.65869 17.3071 3.875 16.2012 3.875H6.29883ZM11.9238 7.625C10.437 7.625 9.375 8.96533 9.375 10.4375V25.4375C9.375 26.9097 10.437 28.25 11.9238 28.25H21.8262C23.313 28.25 24.375 26.9097 24.375 25.4375V10.4375C24.375 8.96533 23.313 7.625 21.8262 7.625H11.9238ZM11.9238 9.5H21.8262C22.1191 9.5 22.5 9.84424 22.5 10.4375V25.4375C22.5 26.0308 22.1191 26.375 21.8262 26.375H11.9238C11.6309 26.375 11.25 26.0308 11.25 25.4375V10.4375C11.25 9.84424 11.6309 9.5 11.9238 9.5ZM15 22.625V24.5H18.75V22.625H15Z" fill="#19A364"/>
<rect x="17.4592" y="5.59444" width="12.65" height="8.92" fill="white"/>
<path d="M30.5123 13.0643L30.5141 13.0625C31.3983 12.1723 31.3983 10.7214 30.5141 9.83116M30.5123 13.0643L29.982 10.3597M30.5123 13.0643L26.3884 17.1883L26.3866 17.19C25.4965 18.0741 24.0459 18.0743 23.1557 17.1905C23.1555 17.1904 23.1553 17.1902 23.1552 17.19L17.0059 11.0929L17.0036 11.0906C16.5754 10.6624 16.3306 10.0791 16.3306 9.46912V5.29705C16.3306 4.03639 17.3604 3.00659 18.6211 3.00659H22.7932C23.4043 3.00659 23.9911 3.24961 24.4191 3.68805M30.5123 13.0643L23.8843 4.21392M30.5141 9.83116L29.982 10.3597M30.5141 9.83116L30.5144 9.83146L29.982 10.3597M30.5141 9.83116L24.4191 3.68805M29.982 10.3597L23.8843 4.21392M24.4191 3.68805C24.42 3.68904 24.421 3.69002 24.422 3.691L23.8843 4.21392M24.4191 3.68805L24.4167 3.68567L23.8843 4.21392M24.7661 15.2328L28.555 11.4402L22.6946 5.53356H20.6346C20.808 5.74983 20.9115 6.02458 20.9115 6.32402C20.9115 7.02306 20.3471 7.58751 19.6481 7.58751C19.3486 7.58751 19.0739 7.48393 18.8576 7.31057V9.37054L24.7661 15.2328Z" fill="#EC1E1E" stroke="white" stroke-width="1.5"/>
<path d="M22.6741 8.82409C22.4233 8.57331 22.293 8.27797 22.2831 7.93809C22.2765 7.60151 22.392 7.31442 22.6296 7.07683C22.8639 6.84254 23.1526 6.7287 23.4958 6.7353C23.839 6.7419 24.1343 6.86894 24.3818 7.11643C24.6293 7.36392 24.7563 7.65925 24.7629 8.00243C24.7695 8.34562 24.6557 8.63435 24.4214 8.86864C24.1838 9.10623 23.895 9.22007 23.5552 9.21017C23.2153 9.20027 22.9216 9.07158 22.6741 8.82409ZM20.0854 10.017L26.3567 9.21017L27.1091 9.96254L20.8378 10.7693L20.0854 10.017ZM23.1493 7.96284C23.1526 8.06513 23.1922 8.15423 23.2681 8.23012C23.344 8.30602 23.4331 8.34562 23.5354 8.34892C23.641 8.34892 23.7301 8.31262 23.8027 8.24002C23.8719 8.17073 23.9033 8.08328 23.8967 7.97769C23.8967 7.87209 23.8604 7.783 23.7878 7.7104C23.7152 7.6378 23.6245 7.59986 23.5156 7.59656C23.4133 7.59326 23.3275 7.62625 23.2582 7.69555C23.1856 7.76815 23.1493 7.85724 23.1493 7.96284ZM22.7929 11.1406C23.0272 10.9063 23.3159 10.7924 23.6591 10.799C24.0023 10.8056 24.2976 10.9327 24.5451 11.1802C24.7926 11.4277 24.9196 11.723 24.9262 12.0662C24.9328 12.4094 24.819 12.6981 24.5847 12.9324C24.3471 13.17 24.0584 13.2838 23.7185 13.2739C23.3786 13.264 23.0849 13.1353 22.8375 12.8878C22.5867 12.637 22.4563 12.3417 22.4464 12.0018C22.4398 11.6652 22.5553 11.3782 22.7929 11.1406ZM23.4215 11.7593C23.3489 11.8319 23.3126 11.921 23.3126 12.0266C23.3159 12.1289 23.3555 12.218 23.4314 12.2939C23.5073 12.3698 23.5964 12.4094 23.6987 12.4127C23.8043 12.4127 23.8934 12.3764 23.966 12.3038C24.0353 12.2345 24.0666 12.147 24.06 12.0414C24.06 11.9358 24.0237 11.8467 23.9511 11.7741C23.8785 11.7015 23.7878 11.6636 23.6789 11.6603C23.5766 11.657 23.4908 11.69 23.4215 11.7593Z" fill="#EC1E1E"/>
</svg>
