<svg width="31" height="31" viewBox="0 0 31 31" fill="none" xmlns="http://www.w3.org/2000/svg">
<path d="M7.75 3.875V4.84375V13.5625H5.8125V22.2812C5.8125 24.9453 7.99222 27.125 10.6562 27.125H13.5625V29.0625H17.4375V27.125H20.3438C23.0078 27.125 25.1875 24.9453 25.1875 22.2812V13.5625H23.25V3.875H7.75ZM9.6875 5.8125H21.3125V13.5625H9.6875V5.8125ZM11.625 7.75V9.6875H13.5625V7.75H11.625ZM17.4375 7.75V9.6875H19.375V7.75H17.4375ZM7.75 15.5H23.25V22.2812C23.25 23.8991 21.9616 25.1875 20.3438 25.1875H17.4375H13.5625H10.6562C9.03841 25.1875 7.75 23.8991 7.75 22.2812V15.5Z" fill="#19A364" stroke="white" stroke-width="0.5"/>
<rect x="19.5" y="7.5" width="2" height="2" transform="rotate(90 19.5 7.5)" fill="#19A364"/>
<rect x="13.5" y="7.5" width="2" height="2" transform="rotate(90 13.5 7.5)" fill="#19A364"/>
</svg>
