<svg width="23" height="23" viewBox="0 0 23 23" fill="none" xmlns="http://www.w3.org/2000/svg">
<path d="M3.59375 2.875C2.40894 2.875 1.4375 3.84644 1.4375 5.03125V16.5312C1.4375 17.7161 2.40894 18.6875 3.59375 18.6875H5.75V22.1858L11.0002 18.6875H17.9688C19.1536 18.6875 20.125 17.7161 20.125 16.5312V5.03125C20.125 3.84644 19.1536 2.875 17.9688 2.875H3.59375ZM3.59375 4.3125H17.9688C18.373 4.3125 18.6875 4.62695 18.6875 5.03125V16.5312C18.6875 16.9355 18.373 17.25 17.9688 17.25H10.5623L7.1875 19.5017V17.25H3.59375C3.18945 17.25 2.875 16.9355 2.875 16.5312V5.03125C2.875 4.62695 3.18945 4.3125 3.59375 4.3125Z" fill="#C4C4C4"/>
</svg>
