<svg width="24" height="23" viewBox="0 0 24 23" fill="none" xmlns="http://www.w3.org/2000/svg">
<path d="M11.5015 2.87491C7.49219 2.87491 4.12866 5.62918 3.16846 9.34366H4.65088C5.56897 6.42935 8.28955 4.31241 11.5015 4.31241C15.4658 4.31241 18.689 7.53555 18.689 11.4999C18.689 15.4643 15.4658 18.6874 11.5015 18.6874C8.28955 18.6874 5.56897 16.5705 4.65088 13.6562H3.16846C4.12866 17.3706 7.49219 20.1249 11.5015 20.1249C16.2576 20.1249 20.1265 16.256 20.1265 11.4999C20.1265 6.74381 16.2576 2.87491 11.5015 2.87491ZM11.0298 8.10831L9.99658 9.14151L11.6362 10.7812H2.87646V12.2187H11.6362L9.99658 13.8583L11.0298 14.8915L13.9048 12.0165L14.3989 11.4999L13.9048 10.9833L11.0298 8.10831Z" fill="black" fill-opacity="0.99"/>
</svg>
