<svg width="25" height="24" viewBox="0 0 25 24" fill="none" xmlns="http://www.w3.org/2000/svg">
<path d="M12.0015 21.1171L11.6265 20.8974C11.2427 20.6776 2.25146 15.3983 2.25146 9.74991C2.25146 6.85538 4.60693 4.49991 7.50146 4.49991C9.40869 4.49991 11.0815 5.52237 12.0015 7.04874C12.9214 5.52237 14.5942 4.49991 16.5015 4.49991C19.396 4.49991 21.7515 6.85538 21.7515 9.74991C21.7515 15.3983 12.7603 20.6776 12.3765 20.8974L12.0015 21.1171ZM7.50146 5.99991C5.43311 5.99991 3.75146 7.68155 3.75146 9.74991C3.75146 13.954 10.3403 18.3339 12.0015 19.371C13.6626 18.3339 20.2515 13.954 20.2515 9.74991C20.2515 7.68155 18.5698 5.99991 16.5015 5.99991C14.4331 5.99991 12.7515 7.68155 12.7515 9.74991H11.2515C11.2515 7.68155 9.56982 5.99991 7.50146 5.99991Z" fill="black" fill-opacity="0.99"/>
</svg>
