<svg width="23" height="22" viewBox="0 0 23 22" fill="none" xmlns="http://www.w3.org/2000/svg">
<path d="M7.04153 1.32001C3.88673 1.32001 1.32153 3.88521 1.32153 7.04001V14.96C1.32153 18.1148 3.88673 20.68 7.04153 20.68H14.9615C18.1163 20.68 20.6815 18.1148 20.6815 14.96V7.04001C20.6815 3.88521 18.1163 1.32001 14.9615 1.32001H7.04153ZM16.2815 4.84001C16.7655 4.84001 17.1615 5.23601 17.1615 5.72001C17.1615 6.20401 16.7655 6.60001 16.2815 6.60001C15.7975 6.60001 15.4015 6.20401 15.4015 5.72001C15.4015 5.23601 15.7975 4.84001 16.2815 4.84001ZM11.0015 6.16001C13.6723 6.16001 15.8415 8.32921 15.8415 11C15.8415 13.6708 13.6723 15.84 11.0015 15.84C8.33073 15.84 6.16153 13.6708 6.16153 11C6.16153 8.32921 8.33073 6.16001 11.0015 6.16001ZM11.0015 7.04001C8.81913 7.04001 7.04153 8.81761 7.04153 11C7.04153 13.1824 8.81913 14.96 11.0015 14.96C13.1839 14.96 14.9615 13.1824 14.9615 11C14.9615 8.81761 13.1839 7.04001 11.0015 7.04001Z" fill="white"/>
</svg>
