<svg width="22" height="22" viewBox="0 0 22 22" fill="none" xmlns="http://www.w3.org/2000/svg">
<path d="M7.03995 1.31982C3.88515 1.31982 1.31995 3.88502 1.31995 7.03982V14.9598C1.31995 18.1146 3.88515 20.6798 7.03995 20.6798H14.9599C18.1147 20.6798 20.6799 18.1146 20.6799 14.9598V7.03982C20.6799 3.88502 18.1147 1.31982 14.9599 1.31982H7.03995ZM16.2799 4.83982C16.7639 4.83982 17.1599 5.23582 17.1599 5.71982C17.1599 6.20382 16.7639 6.59982 16.2799 6.59982C15.7959 6.59982 15.3999 6.20382 15.3999 5.71982C15.3999 5.23582 15.7959 4.83982 16.2799 4.83982ZM10.9999 6.15982C13.6707 6.15982 15.8399 8.32902 15.8399 10.9998C15.8399 13.6706 13.6707 15.8398 10.9999 15.8398C8.32915 15.8398 6.15995 13.6706 6.15995 10.9998C6.15995 8.32902 8.32915 6.15982 10.9999 6.15982ZM10.9999 7.03982C8.81755 7.03982 7.03995 8.81742 7.03995 10.9998C7.03995 13.1822 8.81755 14.9598 10.9999 14.9598C13.1823 14.9598 14.9599 13.1822 14.9599 10.9998C14.9599 8.81742 13.1823 7.03982 10.9999 7.03982Z" fill="white"/>
</svg>
