<svg width="23" height="23" viewBox="0 0 23 23" fill="none" xmlns="http://www.w3.org/2000/svg">
<path d="M7.1875 2.875C4.27319 2.875 1.87549 5.07056 1.51611 7.88379C1.46558 8.11401 1.4375 8.35547 1.4375 8.625C1.4375 11.9099 3.94751 14.8748 6.34522 17.0759C8.7373 19.2827 11.1294 20.7371 11.1294 20.7371L11.5 20.9673L11.8706 20.7371C11.8706 20.7371 14.2627 19.2827 16.6604 17.0759C19.0525 14.8748 21.5625 11.9099 21.5625 8.625C21.5625 8.35547 21.5344 8.11963 21.4895 7.89502C21.1245 5.07056 18.7324 2.875 15.8125 2.875C14.0269 2.875 12.55 3.80713 11.5 5.0874C10.45 3.80713 8.97315 2.875 7.1875 2.875ZM7.1875 4.3125C8.771 4.3125 10.1299 5.16602 10.8823 6.43506L11.5 7.47949L12.1177 6.43506C12.8701 5.16602 14.229 4.3125 15.8125 4.3125C18.0193 4.3125 19.8049 5.95776 20.0688 8.09717L20.0801 8.15332C20.1082 8.28809 20.125 8.4397 20.125 8.625C20.125 11.1406 17.9631 13.9258 15.6833 16.0203C13.5945 17.9463 11.8313 19.0188 11.5 19.2266C11.1687 19.0188 9.40552 17.9463 7.31104 16.0203C5.03686 13.9258 2.875 11.1406 2.875 8.625C2.875 8.43408 2.89185 8.28247 2.91992 8.15332L2.93115 8.11963V8.08594C3.20068 5.95776 4.98071 4.3125 7.1875 4.3125Z" fill="#19A364"/>
</svg>
