<svg width="19" height="19" viewBox="0 0 19 19" fill="none" xmlns="http://www.w3.org/2000/svg">
<path d="M9.50073 1.78113C6.5575 1.78113 4.15698 4.18164 4.15698 7.12488C4.15698 7.95984 4.49561 8.91772 4.95483 9.96375C5.41406 11.0098 6.00549 12.1207 6.6062 13.1552C7.80762 15.2263 9.01831 16.9589 9.01831 16.9589L9.50073 17.6639L9.98315 16.9589C9.98315 16.9589 11.1938 15.2263 12.3953 13.1552C12.996 12.1207 13.5874 11.0098 14.0466 9.96375C14.5059 8.91772 14.8445 7.95984 14.8445 7.12488C14.8445 4.18164 12.444 1.78113 9.50073 1.78113ZM9.50073 2.96863C11.8038 2.96863 13.657 4.82178 13.657 7.12488C13.657 7.60034 13.4019 8.50024 12.9705 9.48132C12.5391 10.4624 11.943 11.5502 11.3562 12.5614C10.4238 14.171 9.84399 15.0222 9.50073 15.5302C9.15747 15.0222 8.57764 14.171 7.64526 12.5614C7.05847 11.5502 6.4624 10.4624 6.03101 9.48132C5.59961 8.50024 5.34448 7.60034 5.34448 7.12488C5.34448 4.82178 7.19763 2.96863 9.50073 2.96863ZM9.50073 5.93738C8.84436 5.93738 8.31323 6.46851 8.31323 7.12488C8.31323 7.78125 8.84436 8.31238 9.50073 8.31238C10.1571 8.31238 10.6882 7.78125 10.6882 7.12488C10.6882 6.46851 10.1571 5.93738 9.50073 5.93738Z" fill="black" fill-opacity="0.99"/>
</svg>
