<svg width="20" height="19" viewBox="0 0 20 19" fill="none" xmlns="http://www.w3.org/2000/svg">
<path d="M5.14103 1.78113C4.83024 1.78113 4.52408 1.89246 4.26896 2.09656L4.23185 2.11511L4.21329 2.13367L2.35782 4.0448L2.37638 4.06335C1.8035 4.59216 1.62723 5.38306 1.8754 6.06726C1.87772 6.0719 1.87308 6.08118 1.8754 6.08582C2.3787 7.52612 3.66593 10.307 6.18009 12.8212C8.70353 15.3446 11.5215 16.5808 12.9154 17.1259H12.934C13.6553 17.3671 14.4369 17.1954 14.9936 16.7177L16.8676 14.8436C17.3593 14.3519 17.3593 13.4984 16.8676 13.0067L14.4555 10.5946L14.4369 10.5575C13.9452 10.0658 13.0732 10.0658 12.5815 10.5575L11.394 11.745C10.9649 11.5386 9.94205 11.0098 8.96329 10.0751C7.99149 9.14734 7.49515 8.08044 7.31193 7.66296L8.49943 6.47546C8.99808 5.97681 9.00736 5.14648 8.48087 4.6571L8.49943 4.63855L8.44376 4.58289L6.06876 2.13367L6.05021 2.11511L6.0131 2.09656C5.75797 1.89246 5.45182 1.78113 5.14103 1.78113ZM5.14103 2.96863C5.1851 2.96863 5.22916 2.9895 5.27091 3.02429L7.64591 5.45496L7.70157 5.51062C7.69694 5.50598 7.73636 5.5686 7.66446 5.6405L6.18009 7.12488L5.90177 7.38464L6.03165 7.75574C6.03165 7.75574 6.71354 9.58105 8.14689 10.9471L8.27677 11.0585C9.65677 12.3179 11.2826 13.0067 11.2826 13.0067L11.6537 13.1737L13.4164 11.411C13.5185 11.309 13.4999 11.309 13.602 11.411L16.0326 13.8417C16.1347 13.9437 16.1347 13.9066 16.0326 14.0087L14.2143 15.827C13.9406 16.0613 13.6507 16.11 13.3051 15.994C11.9599 15.4652 9.34598 14.3171 7.01505 11.9862C4.66556 9.63672 3.43864 6.9718 2.98868 5.67761C2.89823 5.4364 2.96317 5.07922 3.17423 4.89832L3.21134 4.86121L5.01114 3.02429C5.05289 2.9895 5.09696 2.96863 5.14103 2.96863Z" fill="black" fill-opacity="0.99"/>
</svg>
