<svg width="25" height="25" viewBox="0 0 25 25" fill="none" xmlns="http://www.w3.org/2000/svg">
<path d="M3.90625 3.125C2.61841 3.125 1.5625 4.18091 1.5625 5.46875V17.9688C1.5625 19.2566 2.61841 20.3125 3.90625 20.3125H6.25V24.115L11.9568 20.3125H19.5312C20.8191 20.3125 21.875 19.2566 21.875 17.9688V5.46875C21.875 4.18091 20.8191 3.125 19.5312 3.125H3.90625ZM3.90625 4.6875H19.5312C19.9707 4.6875 20.3125 5.0293 20.3125 5.46875V17.9688C20.3125 18.4082 19.9707 18.75 19.5312 18.75H11.4807L7.8125 21.1975V18.75H3.90625C3.4668 18.75 3.125 18.4082 3.125 17.9688V5.46875C3.125 5.0293 3.4668 4.6875 3.90625 4.6875ZM6.25 10.9375V12.5H7.8125V10.9375H6.25ZM10.9375 10.9375V12.5H12.5V10.9375H10.9375ZM15.625 10.9375V12.5H17.1875V10.9375H15.625Z" fill="white"/>
</svg>
