<svg width="21" height="21" viewBox="0 0 21 21" fill="none" xmlns="http://www.w3.org/2000/svg">
<path d="M9.84375 1.3125C5.14233 1.3125 1.3125 5.14233 1.3125 9.84375C1.3125 14.5452 5.14233 18.375 9.84375 18.375C14.5452 18.375 18.375 14.5452 18.375 9.84375C18.375 5.14233 14.5452 1.3125 9.84375 1.3125ZM9.84375 2.625C13.8376 2.625 17.0625 5.84985 17.0625 9.84375C17.0625 13.8376 13.8376 17.0625 9.84375 17.0625C5.84985 17.0625 2.625 13.8376 2.625 9.84375C2.625 5.84985 5.84985 2.625 9.84375 2.625ZM9.1875 3.9375V10.5H13.125V9.1875H10.5V3.9375H9.1875Z" fill="#C4C4C4"/>
</svg>
